<svg width="43" height="39" viewBox="0 0 43 39" fill="none" xmlns="http://www.w3.org/2000/svg">
<path d="M40.7143 8.57143H27.8571C27.2888 8.57143 26.7438 8.79719 26.3419 9.19906C25.9401 9.60092 25.7143 10.146 25.7143 10.7143V17.1429H21.4286V2.14286C21.4286 1.57454 21.2028 1.02949 20.8009 0.627628C20.3991 0.225765 19.854 0 19.2857 0H2.14286C1.57454 0 1.02949 0.225765 0.627628 0.627628C0.225765 1.02949 0 1.57454 0 2.14286V36.4286C0 36.9969 0.225765 37.5419 0.627628 37.9438C1.02949 38.3457 1.57454 38.5714 2.14286 38.5714H40.7143C41.2826 38.5714 41.8277 38.3457 42.2295 37.9438C42.6314 37.5419 42.8571 36.9969 42.8571 36.4286V10.7143C42.8571 10.146 42.6314 9.60092 42.2295 9.19906C41.8277 8.79719 41.2826 8.57143 40.7143 8.57143ZM12.8571 6.42857H17.1429V10.7143H12.8571V6.42857ZM8.57143 27.8571H4.28571V23.5714H8.57143V27.8571ZM8.57143 19.2857H4.28571V15H8.57143V19.2857ZM8.57143 10.7143H4.28571V6.42857H8.57143V10.7143ZM17.1429 27.8571H12.8571V23.5714H17.1429V27.8571ZM17.1429 19.2857H12.8571V15H17.1429V19.2857ZM36.4286 27.8571H32.1429V23.5714H36.4286V27.8571ZM36.4286 19.2857H32.1429V15H36.4286V19.2857Z" fill="white"/>
</svg>
