<svg width="39" height="43" viewBox="0 0 39 43" fill="none" xmlns="http://www.w3.org/2000/svg">
<path d="M19.2857 1.58639e-08C22.9571 -0.000148869 26.5523 1.04768 29.6488 3.02033C32.7452 4.99299 35.2142 7.80852 36.7657 11.136C38.3171 14.4635 38.8865 18.1647 38.407 21.8047C37.9275 25.4447 36.4189 28.8721 34.0586 31.6843C36.7479 33.4629 38.4172 35.7343 38.5607 38.2179L38.5714 38.5714L19.2857 42.8571L1.59364e-05 38.5714L0.0107305 38.2179C0.154302 35.7321 1.82359 33.4607 4.51073 31.6821C1.5919 28.2115 -0.005821 23.8206 1.59364e-05 19.2857C1.59364e-05 14.1708 2.0319 9.26543 5.64867 5.64865C9.26544 2.03188 14.1708 1.58639e-08 19.2857 1.58639e-08ZM19.2857 23.5714C16.3286 23.5714 13.9286 25.0114 13.9286 26.7857C13.9286 28.56 16.3286 30 19.2857 30C22.2429 30 24.6429 28.56 24.6429 26.7857C24.6429 25.0114 22.2429 23.5714 19.2857 23.5714ZM12.8572 12.8571C10.4893 12.8571 8.57144 14.2971 8.57144 16.0714C8.57144 17.8457 10.4893 19.2857 12.8572 19.2857C15.225 19.2857 17.1429 17.8457 17.1429 16.0714C17.1429 14.2971 15.225 12.8571 12.8572 12.8571ZM25.7143 12.8571C23.3464 12.8571 21.4286 14.2971 21.4286 16.0714C21.4286 17.8457 23.3464 19.2857 25.7143 19.2857C28.0822 19.2857 30 17.8457 30 16.0714C30 14.2971 28.0822 12.8571 25.7143 12.8571Z" fill="white"/>
</svg>
