<svg width="35" height="35" viewBox="0 0 35 35" fill="none" xmlns="http://www.w3.org/2000/svg">
<g clip-path="url(#clip0_1391_868)">
<path d="M20.3565 16.0715C20.3562 16.9242 20.0172 17.7419 19.414 18.3447C18.8108 18.9475 17.9928 19.286 17.1401 19.2857C16.2873 19.2855 15.4696 18.9464 14.8668 18.3432C14.264 17.74 13.9255 16.9221 13.9258 16.0693C13.9261 15.2165 14.2651 14.3988 14.8683 13.796C15.4715 13.1932 16.2894 12.8547 17.1422 12.855C17.995 12.8553 18.8127 13.1943 19.4155 13.7975C20.0183 14.4007 20.3568 15.2187 20.3565 16.0715ZM30.5779 8.57146H25.1351C24.1519 8.57146 23.2089 8.96203 22.5137 9.65725C21.8185 10.3525 21.4279 11.2954 21.4279 12.2786V19.2857C21.4279 19.8541 21.6537 20.3991 22.0556 20.801C22.4574 21.2028 23.0025 21.4286 23.5708 21.4286V34.2857H32.1422V21.4286C32.7105 21.4286 33.2556 21.2028 33.6574 20.801C34.0593 20.3991 34.2851 19.8541 34.2851 19.2857V12.2786C34.2851 11.2954 33.8945 10.3525 33.1993 9.65725C32.504 8.96203 31.5611 8.57146 30.5779 8.57146Z" fill="white"/>
<path d="M32.1429 4.28576C32.1558 4.85649 32.0545 5.42404 31.8451 5.9551C31.6356 6.48616 31.3222 6.97002 30.9231 7.37828C30.5241 7.78653 30.0475 8.11095 29.5214 8.33249C28.9953 8.55403 28.4302 8.66822 27.8593 8.66837C27.2884 8.66851 26.7233 8.5546 26.197 8.33332C25.6708 8.11205 25.1941 7.78786 24.7948 7.37981C24.3956 6.97175 24.0819 6.48805 23.8722 5.95709C23.6625 5.42614 23.561 4.85864 23.5736 4.28791C23.5983 3.16813 24.0605 2.10255 24.8611 1.31925C25.6617 0.535965 26.7371 0.0972193 27.8572 0.0969392C28.9772 0.0966591 30.0529 0.534867 30.8539 1.31776C31.6549 2.10065 32.1175 3.166 32.1429 4.28576ZM9.15 10.7143H3.70714C3.22017 10.7145 2.738 10.8105 2.28815 10.997C1.8383 11.1835 1.42959 11.4568 1.08535 11.8012C0.741113 12.1456 0.468086 12.5545 0.281861 13.0045C0.0956359 13.4544 -0.000140547 13.9366 1.548e-07 14.4236C0.000140857 14.9106 0.096196 15.3928 0.282681 15.8426C0.469166 16.2925 0.74243 16.7012 1.08687 17.0454C1.43131 17.3896 1.84018 17.6627 2.29013 17.8489C2.74009 18.0351 3.22232 18.1309 3.70929 18.1308C4.69277 18.1305 5.63585 17.7395 6.33108 17.0439C7.0263 16.3483 7.41671 15.405 7.41643 14.4215C7.41614 13.438 7.02519 12.4949 6.32956 11.7997C5.63393 11.1045 4.69062 10.714 3.70714 10.7143C2.72395 10.7143 1.78058 11.106 1.08535 11.8012C0.390129 12.4964 1.548e-07 13.4404 1.548e-07 14.4236L2.32945e-07 19.2858C2.32945e-07 19.8541 0.225765 20.3991 0.627629 20.801C1.02949 21.2029 1.57454 21.4286 2.14286 21.4286L2.32945e-07 27.8572H2.14286V34.2858H10.7143V27.8572H12.8571L10.7143 21.4286C11.2826 21.4286 11.8277 21.2029 12.2295 20.801C12.6314 20.3991 12.8571 19.8541 12.8571 19.2858V14.4215C12.8571 13.9346 12.7613 13.4526 12.575 13.0028C12.3887 12.553 12.1156 12.1444 11.7713 11.8001C11.4271 11.4559 11.0184 11.1828 10.5687 10.9965C10.1189 10.8102 9.63683 10.7143 9.15 10.7143Z" fill="white"/>
<path d="M10.7149 6.42863C10.7278 6.99936 10.6265 7.56691 10.4171 8.09797C10.2076 8.62903 9.89417 9.11289 9.49514 9.52114C9.09612 9.9294 8.61954 10.2538 8.09341 10.4754C7.56728 10.6969 7.00219 10.8111 6.43132 10.8112C5.86045 10.8114 5.2953 10.6975 4.76905 10.4762C4.24281 10.2549 3.76608 9.93073 3.36685 9.52268C2.96762 9.11462 2.65393 8.63092 2.44421 8.09996C2.23449 7.56901 2.13296 7.00151 2.14558 6.43077C2.17034 5.311 2.63249 4.24541 3.43309 3.46212C4.23369 2.67883 5.30913 2.24009 6.42917 2.23981C7.54922 2.23953 8.62487 2.67773 9.42587 3.46062C10.2269 4.24351 10.6895 5.30887 10.7149 6.42863ZM15.0006 27.8572V34.2858H19.2863V27.8572C19.8546 27.8572 20.3997 27.6314 20.8015 27.2296C21.2034 26.8277 21.4291 26.2827 21.4291 25.7143V22.4143C21.4291 21.5846 21.0995 20.7888 20.5128 20.2021C19.9261 19.6154 19.1303 19.2858 18.3006 19.2858H15.9863C15.1565 19.2858 14.3608 19.6154 13.7741 20.2021C13.1873 20.7888 12.8577 21.5846 12.8577 22.4143V25.7143C12.8577 26.2827 13.0835 26.8277 13.4853 27.2296C13.8872 27.6314 14.4323 27.8572 15.0006 27.8572Z" fill="white"/>
</g>
<defs>
<clipPath id="clip0_1391_868">
<rect width="34.2857" height="34.2857" fill="white"/>
</clipPath>
</defs>
</svg>
