<svg width="43" height="39" viewBox="0 0 43 39" fill="none" xmlns="http://www.w3.org/2000/svg">
<path d="M6.42858 38.5714V34.2857H36.4286V38.5714H6.42858ZM6.42858 31.0714L3.69643 13.875C3.62501 13.875 3.54429 13.8843 3.45429 13.9029C3.36429 13.9214 3.28429 13.93 3.21429 13.9286C2.32143 13.9286 1.56286 13.6157 0.938576 12.99C0.31429 12.3643 0.00143344 11.6057 4.87013e-06 10.7143C-0.0014237 9.82286 0.311433 9.06429 0.938576 8.43858C1.56572 7.81286 2.32429 7.50001 3.21429 7.50001C4.10429 7.50001 4.86358 7.81286 5.49215 8.43858C6.12072 9.06429 6.43286 9.82286 6.42858 10.7143C6.42858 10.9643 6.40143 11.1964 6.34715 11.4107C6.29286 11.625 6.23072 11.8214 6.16072 12L12.8571 15L19.5536 5.83929C19.1607 5.55358 18.8393 5.17858 18.5893 4.71429C18.3393 4.25001 18.2143 3.75001 18.2143 3.21429C18.2143 2.32143 18.5271 1.56215 19.1529 0.936434C19.7786 0.310719 20.5371 -0.00142369 21.4286 4.88122e-06C22.32 0.00143345 23.0793 0.31429 23.7064 0.938576C24.3336 1.56286 24.6457 2.32143 24.6429 3.21429C24.6429 3.75001 24.5179 4.25001 24.2679 4.71429C24.0179 5.17858 23.6964 5.55358 23.3036 5.83929L30 15L36.6964 12C36.625 11.8214 36.5622 11.625 36.5079 11.4107C36.4536 11.1964 36.4272 10.9643 36.4286 10.7143C36.4286 9.82143 36.7414 9.06215 37.3671 8.43643C37.9929 7.81072 38.7514 7.49858 39.6429 7.50001C40.5343 7.50143 41.2936 7.81429 41.9207 8.43858C42.5479 9.06286 42.86 9.82143 42.8572 10.7143C42.8543 11.6071 42.5421 12.3664 41.9207 12.9921C41.2993 13.6179 40.54 13.93 39.6429 13.9286C39.5714 13.9286 39.4914 13.92 39.4029 13.9029C39.3143 13.8857 39.2336 13.8764 39.1607 13.875L36.4286 31.0714H6.42858Z" fill="white"/>
</svg>
