<svg width="50" height="50" viewBox="0 0 50 50" fill="none" xmlns="http://www.w3.org/2000/svg">
<path d="M36.6667 10C37.5507 10 38.3986 10.3512 39.0237 10.9763C39.6488 11.6014 40 12.4493 40 13.3333V36.6667C40 37.5507 39.6488 38.3986 39.0237 39.0237C38.3986 39.6488 37.5507 40 36.6667 40H13.3333C12.4493 40 11.6014 39.6488 10.9763 39.0237C10.3512 38.3986 10 37.5507 10 36.6667V13.3333C10 12.4493 10.3512 11.6014 10.9763 10.9763C11.6014 10.3512 12.4493 10 13.3333 10H36.6667ZM35.8333 35.8333V27C35.8333 25.559 35.2609 24.177 34.2419 23.1581C33.223 22.1391 31.841 21.5667 30.4 21.5667C28.9833 21.5667 27.3333 22.4333 26.5333 23.7333V21.8833H21.8833V35.8333H26.5333V27.6167C26.5333 26.3333 27.5667 25.2833 28.85 25.2833C29.4688 25.2833 30.0623 25.5292 30.4999 25.9668C30.9375 26.4043 31.1833 26.9978 31.1833 27.6167V35.8333H35.8333ZM16.4667 19.2667C17.2093 19.2667 17.9215 18.9717 18.4466 18.4466C18.9717 17.9215 19.2667 17.2093 19.2667 16.4667C19.2667 14.9167 18.0167 13.65 16.4667 13.65C15.7196 13.65 15.0032 13.9468 14.475 14.475C13.9468 15.0032 13.65 15.7196 13.65 16.4667C13.65 18.0167 14.9167 19.2667 16.4667 19.2667ZM18.7833 35.8333V21.8833H14.1667V35.8333H18.7833Z" fill="white"/>
</svg>
