<svg width="50" height="50" viewBox="0 0 50 50" fill="none" xmlns="http://www.w3.org/2000/svg">
<path d="M25 24.25C24.0054 24.25 23.0516 23.8549 22.3483 23.1517C21.6451 22.4484 21.25 21.4946 21.25 20.5C21.25 19.5054 21.6451 18.5516 22.3483 17.8483C23.0516 17.1451 24.0054 16.75 25 16.75C25.9946 16.75 26.9484 17.1451 27.6517 17.8483C28.3549 18.5516 28.75 19.5054 28.75 20.5C28.75 20.9925 28.653 21.4801 28.4645 21.9351C28.2761 22.39 27.9999 22.8034 27.6517 23.1517C27.3034 23.4999 26.89 23.7761 26.4351 23.9645C25.9801 24.153 25.4925 24.25 25 24.25ZM25 10C22.2152 10 19.5445 11.1062 17.5754 13.0754C15.6062 15.0445 14.5 17.7152 14.5 20.5C14.5 28.375 25 40 25 40C25 40 35.5 28.375 35.5 20.5C35.5 17.7152 34.3938 15.0445 32.4246 13.0754C30.4555 11.1062 27.7848 10 25 10Z" fill="white"/>
</svg>
