<svg width="50" height="50" viewBox="0 0 50 50" fill="none" xmlns="http://www.w3.org/2000/svg">
<path d="M16.0333 22.9833C18.4333 27.7 22.3 31.55 27.0167 33.9667L30.6833 30.3C31.1333 29.85 31.8 29.7 32.3833 29.9C34.25 30.5167 36.2667 30.85 38.3333 30.85C39.25 30.85 40 31.6 40 32.5167V38.3333C40 39.25 39.25 40 38.3333 40C22.6833 40 10 27.3167 10 11.6667C10 10.75 10.75 10 11.6667 10H17.5C18.4167 10 19.1667 10.75 19.1667 11.6667C19.1667 13.75 19.5 15.75 20.1167 17.6167C20.3 18.2 20.1667 18.85 19.7 19.3167L16.0333 22.9833Z" fill="white"/>
</svg>
