<svg width="45" height="44" viewBox="0 0 45 44" fill="none" xmlns="http://www.w3.org/2000/svg">
<path d="M12.8571 39.6964V20.3571H16.2857C16.5357 20.3571 16.7857 20.3843 17.0357 20.4386C17.2857 20.4929 17.5357 20.555 17.7857 20.625L32.625 26.1429C33.125 26.3214 33.5271 26.6429 33.8314 27.1071C34.1357 27.5714 34.2871 28.0536 34.2857 28.5536C34.2857 29.3036 34.0264 29.9107 33.5079 30.375C32.9893 30.8393 32.3914 31.0714 31.7143 31.0714H26.0893C25.9107 31.0714 25.7771 31.0629 25.6886 31.0457C25.6 31.0286 25.4836 30.9836 25.3393 30.9107L21.9107 29.5714L21.2143 31.6607L25.3393 33.1071C25.4107 33.1429 25.5179 33.17 25.6607 33.1886C25.8036 33.2071 25.9286 33.2157 26.0357 33.2143H40.7143C41.8571 33.2143 42.8571 33.625 43.7143 34.4464C44.5714 35.2679 45 36.2857 45 37.5L27.9107 43.9286L12.8571 39.6964ZM0 43.9286V20.3571H8.57143V43.9286H0ZM28.9286 13.9286H31.0714V11.7857H28.9286V13.9286ZM24.6429 13.9286H26.7857V11.7857H24.6429V13.9286ZM28.9286 18.2143H31.0714V16.0714H28.9286V18.2143ZM24.6429 18.2143H26.7857V16.0714H24.6429V18.2143ZM37.5536 26.7857C37.0536 25.6071 36.3393 24.5714 35.4107 23.6786C34.4821 22.7857 33.3393 22.0893 31.9821 21.5893L17.1429 16.0714H12.8571V10.7143L27.8571 0L42.8571 10.7143V26.7857H37.5536Z" fill="white"/>
</svg>
