<svg width="50" height="50" viewBox="0 0 50 50" fill="none" xmlns="http://www.w3.org/2000/svg">
<path d="M25 10C33.2845 10 40 16.7155 40 25C40 33.2845 33.2845 40 25 40C22.3491 40.0045 19.7449 39.303 17.455 37.9675L10.006 40L12.034 32.548C10.6975 30.2574 9.99538 27.652 10 25C10 16.7155 16.7155 10 25 10ZM19.888 17.95L19.588 17.962C19.3941 17.9754 19.2045 18.0263 19.03 18.112C18.8674 18.2043 18.7189 18.3194 18.589 18.454C18.409 18.6235 18.307 18.7705 18.1975 18.913C17.6427 19.6343 17.344 20.52 17.3485 21.43C17.3515 22.165 17.5435 22.8805 17.8435 23.5495C18.457 24.9025 19.4665 26.335 20.7985 27.6625C21.1195 27.982 21.4345 28.303 21.7735 28.6015C23.4287 30.0586 25.4009 31.1094 27.5335 31.6705L28.3855 31.801C28.663 31.816 28.9405 31.795 29.2195 31.7815C29.6563 31.7584 30.0827 31.6402 30.469 31.435C30.6653 31.3335 30.857 31.2234 31.0435 31.105C31.0435 31.105 31.107 31.062 31.231 30.97C31.4335 30.82 31.558 30.7135 31.726 30.538C31.852 30.408 31.957 30.257 32.041 30.085C32.158 29.8405 32.275 29.374 32.323 28.9855C32.359 28.6885 32.3485 28.5265 32.344 28.426C32.338 28.2655 32.2045 28.099 32.059 28.0285L31.186 27.637C31.186 27.637 29.881 27.0685 29.083 26.7055C28.9995 26.6691 28.91 26.6483 28.819 26.644C28.7164 26.6332 28.6126 26.6447 28.5148 26.6776C28.417 26.7104 28.3273 26.764 28.252 26.8345C28.2445 26.8315 28.144 26.917 27.0595 28.231C26.9973 28.3146 26.9115 28.3778 26.8132 28.4126C26.7149 28.4473 26.6085 28.452 26.5075 28.426C26.4097 28.3999 26.314 28.3668 26.221 28.327C26.035 28.249 25.9705 28.219 25.843 28.165C24.9818 27.7898 24.1847 27.2822 23.4805 26.6605C23.2915 26.4955 23.116 26.3155 22.936 26.1415C22.3459 25.5763 21.8316 24.937 21.406 24.2395L21.3175 24.097C21.2549 24.0007 21.2036 23.8975 21.1645 23.7895C21.1075 23.569 21.256 23.392 21.256 23.392C21.256 23.392 21.6205 22.993 21.79 22.777C21.955 22.567 22.0945 22.363 22.1845 22.2175C22.3615 21.9325 22.417 21.64 22.324 21.4135C21.904 20.3875 21.47 19.367 21.022 18.352C20.9335 18.151 20.671 18.007 20.4325 17.9785C20.3515 17.9685 20.2705 17.9605 20.1895 17.9545C19.9881 17.9429 19.7862 17.9449 19.585 17.9605L19.888 17.95Z" fill="white"/>
</svg>
